<?xml version="1.0" encoding="iso-8859-1"?>
<!-- Generator: Adobe Illustrator 19.0.0, SVG Export Plug-In . SVG Version: 6.00 Build 0)  -->
<svg version="1.1" id="Layer_1" xmlns="http://www.w3.org/2000/svg" xmlns:xlink="http://www.w3.org/1999/xlink" x="0px" y="0px"
	 viewBox="0 0 502 502" style="enable-background:new 0 0 502 502;" xml:space="preserve">
<g>
	<g>
		<g>
			<path d="M492.163,454.245L385.268,347.351c-8.029-8.03-10.395-20.054-6.029-30.635c6.694-16.218,9.946-33.415,9.665-51.112
				c-0.542-34.085-14.142-65.942-38.293-89.701c-24.148-23.754-56.222-36.837-90.315-36.837c-33.927,0-65.938,13.093-90.136,36.865
				c-24.167,23.741-37.828,55.452-38.466,89.29c-0.655,34.698,12.45,67.532,36.899,92.454
				c24.435,24.908,56.989,38.631,91.664,38.641c0.013,0,0.026,0,0.039,0c19.403,0,38.054-4.217,55.437-12.532
				c10.861-5.196,23.792-3.055,32.176,5.331l104.693,104.693c5.283,5.282,12.308,8.192,19.78,8.192
				c7.472,0,14.496-2.91,19.781-8.195C503.069,482.898,503.069,465.152,492.163,454.245z M478.022,479.663
				c-1.507,1.506-3.509,2.336-5.639,2.336s-4.133-0.83-5.639-2.335L362.052,374.972c-9.165-9.165-21.465-13.993-33.974-13.993
				c-7.104,0-14.277,1.558-20.975,4.763c-14.667,7.016-30.414,10.574-46.806,10.574c-0.011,0-0.022,0-0.033,0
				c-29.263-0.008-56.748-11.603-77.394-32.647c-20.659-21.058-31.732-48.784-31.18-78.07
				c1.108-58.742,49.828-106.532,108.605-106.532c59.951,0,107.658,46.936,108.61,106.855c0.239,14.957-2.506,29.48-8.154,43.165
				c-7.459,18.075-3.387,38.646,10.374,52.408l106.896,106.892C481.129,471.496,481.129,476.555,478.022,479.663z"/>
			<path d="M260.295,175.732c-50.706,0-91.959,41.252-91.959,91.959s41.253,91.959,91.959,91.959s91.959-41.252,91.959-91.959
				C352.254,216.984,311.001,175.732,260.295,175.732z M260.295,339.65c-39.679,0-71.959-32.281-71.959-71.959
				s32.28-71.959,71.959-71.959c39.679,0,71.959,32.281,71.959,71.959S299.974,339.65,260.295,339.65z"/>
			<path d="M11.658,114.075h288.565c5.523,0,10-4.477,10-10s-4.478-10-10-10H11.658c-5.522,0-10,4.477-10,10
				S6.136,114.075,11.658,114.075z"/>
			<path d="M192.408,414.351H11.658c-5.522,0-10,4.477-10,10s4.478,10,10,10h180.75c5.522,0,10-4.477,10-10
				S197.93,414.351,192.408,414.351z"/>
			<path d="M11.658,162.218H141.67c5.523,0,10-4.477,10-10c0-5.523-4.478-10-10-10H11.658c-5.522,0-10,4.477-10,10
				C1.658,157.741,6.136,162.218,11.658,162.218z"/>
			<path d="M11.658,389.956H141.67c5.523,0,10-4.477,10-10s-4.478-10-10-10H11.658c-5.522,0-10,4.477-10,10
				S6.136,389.956,11.658,389.956z"/>
			<path d="M11.658,208.149h96.188c5.523,0,10-4.477,10-10s-4.478-10-10-10H11.658c-5.522,0-10,4.477-10,10
				S6.136,208.149,11.658,208.149z"/>
			<path d="M11.658,344.504h96.188c5.523,0,10-4.477,10-10s-4.478-10-10-10H11.658c-5.522,0-10,4.477-10,10
				S6.136,344.504,11.658,344.504z"/>
			<path d="M11.658,253.601h88.789c5.522,0,10-4.477,10-10c0-5.523-4.478-10-10-10H11.658c-5.522,0-10,4.477-10,10
				C1.658,249.124,6.136,253.601,11.658,253.601z"/>
			<path d="M11.658,300.11h88.789c5.522,0,10-4.477,10-10s-4.478-10-10-10H11.658c-5.522,0-10,4.477-10,10
				S6.136,300.11,11.658,300.11z"/>
			<path d="M347.79,114.075h28.539c5.522,0,10-4.477,10-10s-4.478-10-10-10H347.79c-5.522,0-10,4.477-10,10
				S342.268,114.075,347.79,114.075z"/>
			<path d="M11.658,68.623h288.565c5.523,0,10-4.477,10-10s-4.478-10-10-10H11.658c-5.522,0-10,4.477-10,10
				S6.136,68.623,11.658,68.623z"/>
			<path d="M347.79,68.623h28.539c5.522,0,10-4.477,10-10s-4.478-10-10-10H347.79c-5.522,0-10,4.477-10,10
				S342.268,68.623,347.79,68.623z"/>
			<path d="M11.658,20h288.565c5.523,0,10-4.477,10-10s-4.478-10-10-10H11.658c-5.522,0-10,4.477-10,10S6.136,20,11.658,20z"/>
			<path d="M347.79,20h28.539c5.522,0,10-4.477,10-10s-4.478-10-10-10H347.79c-5.522,0-10,4.477-10,10S342.268,20,347.79,20z"/>
		</g>
	</g>
</g>
<g>
</g>
<g>
</g>
<g>
</g>
<g>
</g>
<g>
</g>
<g>
</g>
<g>
</g>
<g>
</g>
<g>
</g>
<g>
</g>
<g>
</g>
<g>
</g>
<g>
</g>
<g>
</g>
<g>
</g>
</svg>
